<mxfile host="app.diagrams.net" modified="2024-07-02T08:39:24.409Z" agent="Mozilla/5.0 (Macintosh; Intel Mac OS X 10_15_7) AppleWebKit/537.36 (KHTML, like Gecko) Chrome/126.0.0.0 Safari/537.36" etag="TKIm5qSPBYw9HHR4vnlw" version="24.6.4" type="github">
  <diagram name="Seite-1" id="hrEufmYqjS48sWQsbGgP">
    <mxGraphModel dx="1051" dy="692" grid="1" gridSize="10" guides="1" tooltips="1" connect="1" arrows="1" fold="1" page="1" pageScale="1" pageWidth="827" pageHeight="1169" math="0" shadow="0">
      <root>
        <mxCell id="0" />
        <mxCell id="1" parent="0" />
        <mxCell id="rwFAd6aGVRtgVlzyLdo6-43" value="" style="rounded=0;orthogonalLoop=1;jettySize=auto;html=1;" edge="1" parent="1" source="rwFAd6aGVRtgVlzyLdo6-29" target="rwFAd6aGVRtgVlzyLdo6-42">
          <mxGeometry relative="1" as="geometry" />
        </mxCell>
        <mxCell id="rwFAd6aGVRtgVlzyLdo6-46" style="rounded=0;orthogonalLoop=1;jettySize=auto;html=1;" edge="1" parent="1" source="rwFAd6aGVRtgVlzyLdo6-29" target="rwFAd6aGVRtgVlzyLdo6-44">
          <mxGeometry relative="1" as="geometry" />
        </mxCell>
        <mxCell id="rwFAd6aGVRtgVlzyLdo6-47" style="rounded=0;orthogonalLoop=1;jettySize=auto;html=1;entryX=0;entryY=0.5;entryDx=0;entryDy=0;" edge="1" parent="1" source="rwFAd6aGVRtgVlzyLdo6-29" target="rwFAd6aGVRtgVlzyLdo6-39">
          <mxGeometry relative="1" as="geometry" />
        </mxCell>
        <mxCell id="rwFAd6aGVRtgVlzyLdo6-29" value="HR" style="verticalLabelPosition=bottom;sketch=0;html=1;fillColor=#A153A0;verticalAlign=top;align=center;pointerEvents=1;shape=mxgraph.cisco_safe.design.actor_2;" vertex="1" parent="1">
          <mxGeometry x="80" y="240" width="19" height="50" as="geometry" />
        </mxCell>
        <mxCell id="rwFAd6aGVRtgVlzyLdo6-36" value="" style="rounded=0;orthogonalLoop=1;jettySize=auto;html=1;" edge="1" parent="1" source="rwFAd6aGVRtgVlzyLdo6-32" target="rwFAd6aGVRtgVlzyLdo6-35">
          <mxGeometry relative="1" as="geometry" />
        </mxCell>
        <mxCell id="rwFAd6aGVRtgVlzyLdo6-32" value="ACC" style="verticalLabelPosition=bottom;sketch=0;html=1;fillColor=#A153A0;verticalAlign=top;align=center;pointerEvents=1;shape=mxgraph.cisco_safe.design.actor_2;" vertex="1" parent="1">
          <mxGeometry x="80" y="530" width="19" height="50" as="geometry" />
        </mxCell>
        <mxCell id="rwFAd6aGVRtgVlzyLdo6-34" value="IT" style="verticalLabelPosition=bottom;sketch=0;html=1;fillColor=#A153A0;verticalAlign=top;align=center;pointerEvents=1;shape=mxgraph.cisco_safe.design.actor_2;" vertex="1" parent="1">
          <mxGeometry x="390" y="370" width="19" height="50" as="geometry" />
        </mxCell>
        <mxCell id="rwFAd6aGVRtgVlzyLdo6-35" value="Gehälter&lt;div&gt;abrechnen&lt;/div&gt;" style="whiteSpace=wrap;html=1;verticalAlign=top;fillColor=#A153A0;sketch=0;pointerEvents=1;" vertex="1" parent="1">
          <mxGeometry x="160" y="620" width="120" height="45" as="geometry" />
        </mxCell>
        <mxCell id="rwFAd6aGVRtgVlzyLdo6-41" value="" style="rounded=0;orthogonalLoop=1;jettySize=auto;html=1;startArrow=classic;startFill=1;endArrow=none;endFill=0;exitX=0;exitY=0.5;exitDx=0;exitDy=0;" edge="1" parent="1" source="rwFAd6aGVRtgVlzyLdo6-39" target="rwFAd6aGVRtgVlzyLdo6-32">
          <mxGeometry relative="1" as="geometry" />
        </mxCell>
        <mxCell id="rwFAd6aGVRtgVlzyLdo6-39" value="Prämie&lt;div&gt;berechenen&lt;/div&gt;" style="whiteSpace=wrap;html=1;verticalAlign=top;fillColor=#A153A0;sketch=0;pointerEvents=1;" vertex="1" parent="1">
          <mxGeometry x="160" y="470" width="120" height="40" as="geometry" />
        </mxCell>
        <mxCell id="rwFAd6aGVRtgVlzyLdo6-42" value="Mitarbeiter&amp;nbsp;&lt;div&gt;hinzufügen&lt;/div&gt;" style="whiteSpace=wrap;html=1;verticalAlign=top;fillColor=#A153A0;sketch=0;pointerEvents=1;" vertex="1" parent="1">
          <mxGeometry x="170" y="190" width="120" height="45" as="geometry" />
        </mxCell>
        <mxCell id="rwFAd6aGVRtgVlzyLdo6-44" value="Mitarbeiter&amp;nbsp;&lt;div&gt;entfernen&lt;/div&gt;" style="whiteSpace=wrap;html=1;verticalAlign=top;fillColor=#A153A0;sketch=0;pointerEvents=1;" vertex="1" parent="1">
          <mxGeometry x="170" y="260" width="120" height="45" as="geometry" />
        </mxCell>
      </root>
    </mxGraphModel>
  </diagram>
</mxfile>
